<svg width="14" height="13" viewBox="0 0 14 13" fill="none" xmlns="http://www.w3.org/2000/svg">
<g clip-path="url(#clip0_34_564)">
<path d="M13.4186 2.43827C12.9412 2.64767 12.4325 2.78648 11.9022 2.85387C12.4478 2.52813 12.8642 2.01625 13.0599 1.39926C12.5513 1.70254 11.9896 1.91676 11.3911 2.0363C10.9081 1.52201 10.2197 1.20349 9.46873 1.20349C8.01171 1.20349 6.83871 2.38612 6.83871 3.83592C6.83871 4.04452 6.85637 4.2451 6.89969 4.43605C4.71175 4.32935 2.77575 3.28071 1.47518 1.68328C1.24812 2.07722 1.11494 2.52813 1.11494 3.01353C1.11494 3.92497 1.5843 4.73291 2.28392 5.20067C1.8611 5.19265 1.4463 5.06989 1.09488 4.87653C1.09488 4.88455 1.09488 4.89498 1.09488 4.90541C1.09488 6.18432 2.00712 7.2466 3.20338 7.4913C2.98916 7.54987 2.75569 7.57796 2.51339 7.57796C2.3449 7.57796 2.17481 7.56833 2.01514 7.53303C2.35613 8.57524 3.32373 9.34146 4.47427 9.36633C3.57887 10.0668 2.44198 10.4888 1.21121 10.4888C0.99539 10.4888 0.78839 10.4792 0.58139 10.4527C1.74717 11.2045 3.12877 11.6337 4.61868 11.6337C9.46151 11.6337 12.1092 7.62208 12.1092 4.14481C12.1092 4.02847 12.1052 3.91615 12.0996 3.80463C12.6219 3.43395 13.0607 2.97101 13.4186 2.43827Z" fill="#402F2C"/>
</g>
<defs>
<clipPath id="clip0_34_564">
<rect width="12.8372" height="12.8372" fill="white" transform="translate(0.58139)"/>
</clipPath>
</defs>
</svg>
