<svg width="90" height="29" viewBox="0 0 90 29" fill="none" xmlns="http://www.w3.org/2000/svg">
<path d="M25.7996 20.3433C25.6584 20.0022 25.5261 19.6435 25.3849 19.3373L24.732 17.8763L24.7055 17.8501C22.7643 13.651 20.6908 9.38183 18.4937 5.18268L18.4055 5.00772C18.1849 4.59655 17.9643 4.14165 17.7349 3.72173C17.4525 3.22308 17.179 2.68944 16.729 2.18205C16.2904 1.65114 15.7383 1.22341 15.1127 0.9297C14.4871 0.635993 13.8036 0.483643 13.1114 0.483643C12.4192 0.483643 11.7356 0.635993 11.11 0.9297C10.4844 1.22341 9.93235 1.65114 9.49372 2.18205C9.07901 2.68944 8.77019 3.22308 8.48783 3.72173C8.26724 4.17664 8.04666 4.6228 7.81724 5.03396L7.72901 5.20893C5.56724 9.40807 3.45842 13.6772 1.51724 17.8763L1.4643 17.9288C1.27019 18.3837 1.04077 18.8561 0.820186 19.3635C0.679009 19.6697 0.537833 20.0022 0.396656 20.3696C0.0155087 21.3317 -0.106204 22.3757 0.0435143 23.3986C0.193232 24.4216 0.609213 25.3882 1.25046 26.2033C1.89171 27.0183 2.73609 27.6536 3.70038 28.0465C4.66468 28.4395 5.71561 28.5765 6.7496 28.4442C7.74089 28.3148 8.69543 27.9874 9.55548 27.4819C10.7025 26.8433 11.8055 25.916 13.0408 24.5775C14.2761 25.916 15.4055 26.8433 16.5261 27.4906C17.6037 28.1177 18.824 28.4639 20.0731 28.4967C21.5196 28.5026 22.9194 27.9895 24.0141 27.0521C25.1088 26.1147 25.8245 24.8162 26.029 23.3965C26.2653 22.3762 26.1854 21.309 25.7996 20.3346V20.3433ZM13.129 21.7955C11.6114 19.8709 10.6231 18.1038 10.2878 16.5904C10.1489 16.0295 10.119 15.4476 10.1996 14.8757C10.2614 14.4295 10.429 14.0359 10.6584 13.7034C11.1878 12.9424 12.1143 12.4699 13.129 12.4699C13.6109 12.4554 14.0889 12.5596 14.5201 12.7734C14.9513 12.9871 15.3222 13.3037 15.5996 13.6947C15.829 14.0446 15.9967 14.4295 16.0496 14.8757C16.1378 15.3831 16.1025 15.9692 15.9614 16.5904C15.6261 18.0776 14.6378 19.8622 13.129 21.7955ZM24.3702 23.0903C24.2699 23.8111 23.9809 24.4933 23.532 25.0689C23.083 25.6444 22.4898 26.0934 21.8114 26.3709C21.1408 26.6508 20.3996 26.7295 19.6761 26.6508C18.9702 26.5633 18.2643 26.3359 17.5408 25.916C16.3395 25.1798 15.2592 24.2652 14.3378 23.204C16.1908 20.9295 17.3114 18.8561 17.7349 17.0103C17.9378 16.1355 17.9643 15.3481 17.8761 14.622C17.7659 13.9338 17.507 13.2773 17.1172 12.6974C16.6722 12.0686 16.0781 11.5579 15.3873 11.2101C14.6965 10.8623 13.9301 10.6881 13.1555 10.7028C11.5231 10.7028 10.0672 11.4552 9.18489 12.6887C8.78769 13.2671 8.53099 13.9288 8.43489 14.622C8.32019 15.3569 8.34666 16.1704 8.57607 17.0103C8.9996 18.8561 10.1467 20.9557 11.9731 23.2215C11.0674 24.3029 9.98462 25.2256 8.77018 25.9509C8.03783 26.3709 7.34077 26.5896 6.63489 26.677C5.53714 26.8165 4.42826 26.5207 3.54927 25.8539C2.67028 25.1872 2.09223 24.2035 1.94077 23.1165C1.85254 22.4167 1.9143 21.7168 2.19666 20.9295C2.28489 20.6495 2.41724 20.3696 2.55842 20.0372C2.75254 19.5822 2.98195 19.1098 3.20254 18.6374L3.23783 18.5762C5.14371 14.4033 7.22607 10.1429 9.38783 5.97002L9.47607 5.79506C9.69666 5.37515 9.91724 4.92899 10.1467 4.50907C10.3761 4.06291 10.6231 3.63425 10.9408 3.28432C11.2157 2.95891 11.5593 2.6972 11.9473 2.51764C12.3352 2.33808 12.7582 2.24502 13.1864 2.24502C13.6145 2.24502 14.0375 2.33808 14.4255 2.51764C14.8134 2.6972 15.157 2.95891 15.432 3.28432C15.7408 3.63425 15.9967 4.06291 16.2261 4.50907C16.4467 4.92899 16.6672 5.38389 16.8967 5.79506L16.9849 5.97002C19.1378 10.1429 21.2202 14.4033 23.1614 18.5762L23.1878 18.6024C23.4172 19.0574 23.6114 19.5648 23.8319 20.0022C23.9731 20.3433 24.1143 20.6145 24.2025 20.9032C24.3702 21.6906 24.4584 22.3904 24.3702 23.0903ZM36.6525 21.6031C35.9876 21.6127 35.3291 21.4738 34.7258 21.1967C34.1224 20.9195 33.5897 20.5113 33.1672 20.0022C32.2179 18.9173 31.714 17.5186 31.7555 16.083C31.741 14.6161 32.2611 13.1933 33.2202 12.0763C33.6638 11.5607 34.2161 11.1478 34.8381 10.8666C35.4601 10.5855 36.1366 10.443 36.8202 10.4491C37.4634 10.4317 38.1004 10.5767 38.6715 10.8705C39.2426 11.1643 39.729 11.5973 40.0849 12.1288L40.1731 10.7553H42.7496V21.3231H40.1643L40.0761 19.7835C39.7092 20.3509 39.202 20.816 38.6028 21.1344C38.0037 21.4529 37.3323 21.6142 36.6525 21.6031ZM37.3231 19.0836C37.8349 19.0836 38.2849 18.9436 38.7084 18.6899C39.0967 18.41 39.4143 18.0426 39.6614 17.5964C39.8819 17.1502 39.9967 16.6166 39.9967 16.0217C40.0311 15.505 39.9296 14.9884 39.7023 14.5222C39.4749 14.0561 39.1294 13.6564 38.6996 13.3623C38.2866 13.1071 37.8097 12.9719 37.3231 12.9719C36.8365 12.9719 36.3597 13.1071 35.9467 13.3623C35.5584 13.6422 35.2408 14.0096 34.9937 14.4558C34.7604 14.9478 34.6456 15.4869 34.6584 16.0305C34.624 16.5471 34.7255 17.0638 34.9528 17.53C35.1802 17.9961 35.5256 18.3958 35.9555 18.6899C36.3702 18.9436 36.8202 19.0836 37.3231 19.0836ZM47.1614 7.90338C47.1614 8.20957 47.1084 8.48951 46.9672 8.71696C46.8261 8.93567 46.6319 9.13688 46.3761 9.27685C46.1202 9.41682 45.8467 9.46931 45.5643 9.46931C45.2819 9.46931 44.9996 9.41682 44.7437 9.27685C44.5017 9.14327 44.2982 8.95053 44.1525 8.71696C44.0159 8.46775 43.9489 8.18688 43.9584 7.90338C43.9584 7.58844 44.0202 7.3085 44.1525 7.0898C44.2937 6.82735 44.4967 6.66988 44.7437 6.52991C44.9996 6.38994 45.2731 6.3287 45.5643 6.3287C45.8452 6.32228 46.1229 6.38824 46.3703 6.52011C46.6178 6.65198 46.8265 6.84526 46.9761 7.08105C47.1045 7.3361 47.1681 7.6184 47.1614 7.90338ZM44.1614 21.2881V10.7378H46.9672V21.3056H44.1525L44.1614 21.2881ZM54.4672 13.5022V13.5372C54.3349 13.476 54.1584 13.4497 54.0261 13.4235C53.8496 13.3885 53.7084 13.3885 53.5408 13.3885C52.7555 13.3885 52.1643 13.616 51.7761 14.0884C51.3525 14.5695 51.1584 15.2431 51.1584 16.1092V21.2969H48.3437V10.7291H50.929L51.0172 12.33C51.2996 11.7701 51.6349 11.3502 52.1114 11.0352C52.5853 10.7292 53.1433 10.5764 53.7084 10.5978C53.9114 10.5978 54.1055 10.6153 54.2731 10.6503C54.3614 10.6766 54.4143 10.6766 54.4672 10.7028V13.5022ZM55.5966 21.2881V6.39869H58.4025V12.085C58.7996 11.5776 59.2496 11.184 59.8143 10.8778C60.7083 10.4432 61.7239 10.3199 62.6972 10.5278C63.6706 10.7358 64.5448 11.2628 65.179 12.0238C66.1305 13.1108 66.6344 14.5131 66.5908 15.9517C66.6053 17.4186 66.0852 18.8414 65.1261 19.9584C64.6824 20.474 64.1302 20.8869 63.5082 21.1681C62.8862 21.4492 62.2096 21.5917 61.5261 21.5856C60.8829 21.603 60.2458 21.458 59.6747 21.1642C59.1036 20.8704 58.6172 20.4374 58.2614 19.9059L58.1731 21.2794L55.5966 21.3056V21.2881ZM61.0231 19.0836C61.5261 19.0836 61.9761 18.9436 62.3996 18.6899C62.7878 18.41 63.1055 18.0426 63.3525 17.5964C63.582 17.1502 63.6878 16.6166 63.6878 16.0217C63.6878 15.4356 63.582 14.902 63.3525 14.4558C63.1208 14.0256 62.7953 13.652 62.3996 13.3623C61.9866 13.1071 61.5097 12.9719 61.0231 12.9719C60.5365 12.9719 60.0597 13.1071 59.6467 13.3623C59.2496 13.6422 58.9408 14.0096 58.6849 14.4558C58.4516 14.9478 58.3368 15.4869 58.3496 16.0305C58.3152 16.5471 58.4166 17.0638 58.644 17.53C58.8713 17.9961 59.2168 18.3958 59.6467 18.6899C60.0614 18.9436 60.5114 19.0836 61.0231 19.0836ZM67.6496 21.2969V10.7291H70.2349L70.3231 12.1025C70.648 11.576 71.1089 11.1452 71.658 10.8545C72.2072 10.5638 72.8247 10.4239 73.4467 10.4491C74.1579 10.4369 74.857 10.6329 75.4565 11.0126C76.056 11.3923 76.5293 11.9387 76.8172 12.5837C77.1261 13.2485 77.2937 14.0709 77.2937 14.9894V21.3231H74.479V15.3569C74.479 14.622 74.3114 14.0446 73.9761 13.616C73.6408 13.196 73.1819 12.9686 72.5996 12.9686C72.1761 12.9686 71.8055 13.0561 71.479 13.2485C71.1702 13.4497 70.9143 13.7034 70.7202 14.0621C70.5239 14.4247 70.4266 14.8318 70.4378 15.2431V21.2969H67.6496ZM78.6967 21.2969V6.38994H81.5114V12.0763C81.8926 11.5661 82.3886 11.151 82.9599 10.8639C83.5312 10.5769 84.1621 10.4259 84.8025 10.4229C85.4674 10.4132 86.126 10.5521 86.7293 10.8293C87.3327 11.1064 87.8653 11.5147 88.2878 12.0238C89.2325 13.1108 89.7329 14.5088 89.6908 15.943C89.7061 17.41 89.1859 18.8331 88.2261 19.9497C87.7824 20.4653 87.2302 20.8782 86.6082 21.1593C85.9862 21.4404 85.3096 21.583 84.6261 21.5768C83.9829 21.5943 83.3458 21.4493 82.7747 21.1555C82.2036 20.8616 81.7172 20.4286 81.3614 19.8972L81.282 21.2707L78.6967 21.2969ZM84.1496 19.0836C84.6614 19.0836 85.1114 18.9436 85.5261 18.6899C85.9231 18.41 86.2319 18.0426 86.4878 17.5964C86.7084 17.1502 86.8231 16.6166 86.8231 16.0217C86.8575 15.505 86.7561 14.9884 86.5287 14.5222C86.3014 14.0561 85.9559 13.6564 85.5261 13.3623C85.1131 13.1071 84.6362 12.9719 84.1496 12.9719C83.663 12.9719 83.1861 13.1071 82.7731 13.3623C82.3849 13.6422 82.0672 14.0096 81.8202 14.4558C81.5739 14.9434 81.4584 15.4857 81.4849 16.0305C81.4505 16.5471 81.5519 17.0638 81.7793 17.53C82.0066 17.9961 82.3521 18.3958 82.7819 18.6899C83.1967 18.9436 83.6202 19.0836 84.1496 19.0836Z" fill="#555555"/>
</svg>
