<svg width="80" height="25" viewBox="0 0 80 25" fill="none" xmlns="http://www.w3.org/2000/svg">
<g clip-path="url(#clip0_34_614)">
<path d="M59.4909 23.7801L66.1626 16.3923L59.4909 9.00354H66.5302L69.8346 12.5925L73.0165 9.00354H79.8102L73.1702 16.3618L79.9014 23.7801H72.8332L69.5588 20.1616L66.3153 23.7801H59.4909Z" fill="#555555"/>
<path d="M59.4909 5.69114H51.9347V9.00349H59.4909V13.9955H51.9347V18.5775H59.4909V23.78H46.381V0.503052H59.4909V5.69114Z" fill="#555555"/>
<path d="M40.8507 0.503052V10.0291H40.7898C39.5654 8.64219 38.0357 8.16023 36.2607 8.16023C32.6249 8.16023 29.8861 10.5961 28.9247 13.8166C27.8284 10.268 25.0009 8.09373 20.8082 8.09373C17.4034 8.09373 14.7147 9.59994 13.3115 12.0543V9.00383H6.27362V5.69182H13.954V0.503052H-0.00012207V23.7804H6.27362V13.9955H12.5268C12.3404 14.7143 12.2409 15.4839 12.2409 16.2959C12.2409 21.1515 16.0047 24.5585 20.8082 24.5585C24.8475 24.5585 27.5094 22.6896 28.9174 19.2823H23.5411C22.8138 20.3059 22.2621 20.6099 20.8082 20.6099C19.1223 20.6099 17.6687 19.1603 17.6687 17.4419H28.6162C29.091 21.2986 32.1394 24.6246 36.3227 24.6246C38.1272 24.6246 39.7794 23.7499 40.7898 22.2728H40.8507V23.7797H46.3811V0.503052H40.8507ZM17.8434 14.0651C18.1922 12.5866 19.3557 11.6203 20.8082 11.6203C22.4072 11.6203 23.5115 12.5568 23.802 14.0651C23.9244 14.0651 17.8434 14.0651 17.8434 14.0651ZM37.4945 20.2359C35.4559 20.2359 34.1891 18.364 34.1891 16.4094C34.1891 14.3201 35.291 12.311 37.4945 12.311C39.7794 12.311 40.6896 14.3201 40.6896 16.4094C40.6893 18.3907 39.7248 20.2359 37.4945 20.2359Z" fill="#555555"/>
</g>
<defs>
<clipPath id="clip0_34_614">
<rect width="80" height="23.9951" fill="white" transform="translate(-0.00012207 0.503052)"/>
</clipPath>
</defs>
</svg>
