<svg width="85" height="29" viewBox="0 0 85 29" fill="none" xmlns="http://www.w3.org/2000/svg">
<g clip-path="url(#clip0_34_598)">
<path d="M36.1462 14.8593C36.1462 18.745 33.0611 21.6083 29.2749 21.6083C25.4887 21.6083 22.4036 18.745 22.4036 14.8593C22.4036 10.9462 25.4887 8.11023 29.2749 8.11023C33.0611 8.11023 36.1462 10.9462 36.1462 14.8593ZM33.1383 14.8593C33.1383 12.4311 31.3502 10.7697 29.2749 10.7697C27.1996 10.7697 25.4115 12.4311 25.4115 14.8593C25.4115 17.2631 27.1996 18.9489 29.2749 18.9489C31.3502 18.9489 33.1383 17.2601 33.1383 14.8593Z" fill="#555555"/>
<path d="M50.9697 14.8593C50.9697 18.745 47.8846 21.6083 44.0984 21.6083C40.3122 21.6083 37.2271 18.745 37.2271 14.8593C37.2271 10.9492 40.3122 8.11023 44.0984 8.11023C47.8846 8.11023 50.9697 10.9462 50.9697 14.8593ZM47.9618 14.8593C47.9618 12.4311 46.1737 10.7697 44.0984 10.7697C42.0231 10.7697 40.235 12.4311 40.235 14.8593C40.235 17.2631 42.0231 18.9489 44.0984 18.9489C46.1737 18.9489 47.9618 17.2601 47.9618 14.8593Z" fill="#555555"/>
<path d="M65.1756 8.51797V20.6346C65.1756 25.6188 62.1923 27.6545 58.6656 27.6545C55.3457 27.6545 53.3476 25.4667 52.5941 23.6775L55.2129 22.6034C55.6792 23.7018 56.8219 24.9981 58.6625 24.9981C60.92 24.9981 62.3189 23.6258 62.3189 21.0424V20.0717H62.2139C61.5407 20.8902 60.2436 21.6053 58.6069 21.6053C55.182 21.6053 52.0444 18.6659 52.0444 14.8836C52.0444 11.074 55.182 8.11023 58.6069 8.11023C60.2406 8.11023 61.5376 8.8253 62.2139 9.61949H62.3189V8.52102H65.1756V8.51797ZM62.532 14.8836C62.532 12.5072 60.9231 10.7697 58.8756 10.7697C56.8003 10.7697 55.0616 12.5072 55.0616 14.8836C55.0616 17.2358 56.8003 18.9489 58.8756 18.9489C60.9231 18.9489 62.532 17.2358 62.532 14.8836Z" fill="#555555"/>
<path d="M69.8852 1.41614V21.1947H66.9514V1.41614H69.8852Z" fill="#555555"/>
<path d="M81.3179 17.0806L83.6526 18.6142C82.8991 19.7126 81.0832 21.6053 77.9456 21.6053C74.0544 21.6053 71.1484 18.6416 71.1484 14.8562C71.1484 10.8427 74.0791 8.10718 77.609 8.10718C81.1635 8.10718 82.9022 10.8944 83.4704 12.4007L83.7823 13.1675L74.6257 16.9041C75.3268 18.2582 76.4169 18.9489 77.9456 18.9489C79.4774 18.9489 80.5397 18.2064 81.3179 17.0806ZM74.1316 14.6524L80.2525 12.1481C79.9159 11.3052 78.9029 10.7179 77.7109 10.7179C76.1822 10.7179 74.0544 12.0477 74.1316 14.6524Z" fill="#555555"/>
<path d="M11.2984 13.1036V10.2402H21.0912C21.1869 10.7393 21.2363 11.3296 21.2363 11.9686C21.2363 14.1168 20.6403 16.7733 18.7194 18.6659C16.851 20.5829 14.4638 21.6053 11.3015 21.6053C5.43999 21.6053 0.511169 16.9011 0.511169 11.1257C0.511169 5.35038 5.43999 0.646118 11.3015 0.646118C14.5441 0.646118 16.8541 1.89978 18.5897 3.53379L16.5391 5.55425C15.2946 4.40405 13.6084 3.50945 11.2984 3.50945C7.01808 3.50945 3.67043 6.90832 3.67043 11.1257C3.67043 15.3431 7.01808 18.742 11.2984 18.742C14.0747 18.742 15.6559 17.6435 16.6688 16.6455C17.4903 15.8361 18.0307 14.6798 18.2438 13.1005L11.2984 13.1036Z" fill="#555555"/>
</g>
<defs>
<clipPath id="clip0_34_598">
<rect width="84" height="27.9943" fill="white" transform="translate(0.399902 0.503052)"/>
</clipPath>
</defs>
</svg>
