<svg width="85" height="25" viewBox="0 0 85 25" fill="none" xmlns="http://www.w3.org/2000/svg">
<g clip-path="url(#clip0_34_587)">
<path d="M9.2967 4.47583V11.2442H3.12842V4.47583H0.199951V20.6326H3.12842V14.084H9.2967V20.6326H12.2252V4.47583H9.2967Z" fill="#555555"/>
<path d="M21.5973 15.4091C21.5973 16.0566 21.3421 16.6776 20.8877 17.1354C20.4334 17.5933 19.8172 17.8505 19.1746 17.8505C18.5321 17.8505 17.9159 17.5933 17.4615 17.1354C17.0072 16.6776 16.7519 16.0566 16.7519 15.4091V8.48889H13.9741V15.4091C13.9741 16.7977 14.5215 18.1294 15.4958 19.1113C16.4702 20.0932 17.7917 20.6448 19.1696 20.6448C20.5475 20.6448 21.869 20.0932 22.8434 19.1113C23.8177 18.1294 24.3651 16.7977 24.3651 15.4091V8.48889H21.5973V15.4091Z" fill="#555555"/>
<path d="M42.1785 9.20256C42.1785 7.7841 43.1097 7.33442 44.1299 7.33442C44.952 7.33442 46.0382 7.96484 46.7484 8.72974L48.5678 6.56953C47.6596 5.33182 45.8172 4.47583 44.3093 4.47583C41.2961 4.47583 39.1166 6.25432 39.1166 9.20256C39.1166 14.6725 45.7512 12.9374 45.7512 15.9984C45.7512 16.9426 44.8416 17.7769 43.7999 17.7769C42.157 17.7769 41.6247 16.9672 40.87 16.1112L38.8512 18.2266C40.1425 19.8243 41.7352 20.6355 43.6435 20.6355C46.506 20.6355 48.8088 18.8353 48.8088 16.0215C48.8088 9.94865 42.1742 11.8356 42.1742 9.20256" fill="#555555"/>
<path d="M83.2228 18.0507C81.5813 18.0507 81.115 17.335 81.115 16.239V11.3879H83.6661V8.92985H81.115V5.68665L78.2985 6.9605V16.8419C78.2985 19.3694 80.0288 20.6433 82.402 20.6433C82.7742 20.6501 83.1462 20.6201 83.5126 20.5536L84.1999 18.0045C83.8899 18.0262 83.5341 18.0478 83.2228 18.0478" fill="#555555"/>
<path d="M32.1706 8.57073C30.7946 8.57073 29.8347 8.9727 28.9064 9.89086V4.57275H26.1243V14.4296C26.1243 18.1196 28.7715 20.6471 31.7459 20.6471C35.046 20.6471 37.9486 18.0748 37.9486 14.6104C37.9486 11.1893 35.277 8.57218 32.1706 8.57218V8.57073ZM32.1534 17.8261C31.5291 17.8261 30.9188 17.6395 30.3997 17.29C29.8806 16.9405 29.476 16.4436 29.2371 15.8624C28.9981 15.2811 28.9356 14.6415 29.0574 14.0245C29.1792 13.4074 29.4799 12.8406 29.9213 12.3957C30.3628 11.9509 30.9252 11.6479 31.5376 11.5251C32.1499 11.4024 32.7846 11.4654 33.3614 11.7062C33.9381 11.9469 34.4311 12.3547 34.778 12.8778C35.1248 13.4009 35.31 14.0159 35.31 14.6451C35.31 15.4887 34.9774 16.2978 34.3854 16.8944C33.7935 17.4909 32.9906 17.8261 32.1534 17.8261Z" fill="#555555"/>
<path d="M62.3791 14.462C62.3791 10.9918 59.4822 8.42529 56.1764 8.42529C53.202 8.42529 50.5548 10.9528 50.5548 14.6428V24.5054H53.3369V19.1801C54.2638 20.0968 55.2251 20.5002 56.5997 20.5002C59.7061 20.5002 62.3777 17.8845 62.3777 14.462H62.3791ZM59.7448 14.4273C59.7448 15.0565 59.5597 15.6715 59.2128 16.1946C58.866 16.7177 58.373 17.1254 57.7962 17.3662C57.2194 17.607 56.5847 17.67 55.9724 17.5472C55.3601 17.4245 54.7976 17.1215 54.3562 16.6766C53.9147 16.2318 53.6141 15.665 53.4923 15.0479C53.3705 14.4308 53.433 13.7912 53.6719 13.21C53.9108 12.6287 54.3154 12.1319 54.8345 11.7824C55.3536 11.4329 55.9639 11.2463 56.5882 11.2463C57.4254 11.2463 58.2283 11.5814 58.8203 12.178C59.4122 12.7745 59.7448 13.5837 59.7448 14.4273Z" fill="#555555"/>
<path d="M71.367 8.28933V5.47267C71.7364 5.29875 72.0491 5.02267 72.2689 4.67658C72.4886 4.3305 72.6062 3.92864 72.6081 3.51778V3.45272C72.6081 2.87749 72.3814 2.32583 71.9778 1.91908C71.5741 1.51234 71.0267 1.28383 70.4559 1.28383H70.3913C69.8205 1.28383 69.2731 1.51234 68.8695 1.91908C68.4659 2.32583 68.2391 2.87749 68.2391 3.45272V3.51778C68.241 3.92864 68.3587 4.3305 68.5784 4.67658C68.7981 5.02267 69.1109 5.29875 69.4802 5.47267V8.28933C68.4186 8.453 67.4188 8.89644 66.5819 9.57476L58.9171 3.55827C58.9713 3.35987 59.0003 3.15531 59.0032 2.94954C59.004 2.46617 58.8626 1.99342 58.5968 1.59106C58.331 1.1887 57.9528 0.874822 57.5099 0.689121C57.0671 0.50342 56.5796 0.454241 56.109 0.547804C55.6384 0.641366 55.2059 0.873468 54.8663 1.21475C54.5266 1.55603 54.295 1.99116 54.2008 2.4651C54.1065 2.93905 54.1539 3.43051 54.3369 3.87732C54.5198 4.32413 54.8302 4.70623 55.2286 4.97528C55.6271 5.24432 56.0958 5.38824 56.5755 5.38881C56.9949 5.38692 57.4065 5.27425 57.7692 5.06203L65.3178 10.9802C64.6395 12.0126 64.2857 13.2269 64.3023 14.4649C64.3189 15.7029 64.7053 16.9072 65.4111 17.9206L63.1154 20.2341C62.9297 20.1744 62.7363 20.1427 62.5414 20.1401C62.1477 20.1404 61.7628 20.2583 61.4356 20.479C61.1083 20.6996 60.8532 21.013 60.7027 21.3797C60.5521 21.7464 60.5128 22.1498 60.5897 22.539C60.6666 22.9281 60.8562 23.2856 61.1347 23.5662C61.4131 23.8468 61.7678 24.0379 62.154 24.1154C62.5402 24.1929 62.9405 24.1532 63.3043 24.0015C63.6682 23.8498 63.9792 23.5928 64.1982 23.263C64.4171 22.9331 64.5341 22.5453 64.5344 22.1485C64.5319 21.9521 64.5005 21.7572 64.4411 21.5701L66.7125 19.2812C67.4531 19.8556 68.3143 20.2515 69.2302 20.4386C70.1461 20.6258 71.0924 20.5992 71.9965 20.3609C72.9006 20.1227 73.7386 19.679 74.4464 19.064C75.1541 18.4489 75.7127 17.6788 76.0795 16.8126C76.4463 15.9464 76.6115 15.0071 76.5625 14.0667C76.5134 13.1262 76.2515 12.2095 75.7966 11.3868C75.3417 10.5641 74.7061 9.85728 73.9383 9.32038C73.1705 8.78349 72.2909 8.4308 71.367 8.28933ZM70.4258 17.5519C69.8045 17.5513 69.1973 17.3652 68.681 17.017C68.1646 16.6687 67.7623 16.1741 67.5249 15.5955C67.2875 15.0169 67.2256 14.3804 67.347 13.7663C67.4685 13.1523 67.7678 12.5884 68.2072 12.1457C68.6467 11.7031 69.2064 11.4017 69.8158 11.2796C70.4252 11.1575 71.0568 11.2201 71.6308 11.4597C72.2048 11.6992 72.6955 12.1049 73.0408 12.6253C73.3861 13.1458 73.5706 13.7578 73.5709 14.3839C73.5709 15.2237 73.2398 16.0292 72.6505 16.623C72.0613 17.2169 71.262 17.5505 70.4286 17.5505" fill="#555555"/>
</g>
<defs>
<clipPath id="clip0_34_587">
<rect width="84" height="23.9951" fill="white" transform="translate(0.199951 0.503052)"/>
</clipPath>
</defs>
</svg>
