<svg width="123" height="27" viewBox="0 0 123 27" fill="none" xmlns="http://www.w3.org/2000/svg">
<g clip-path="url(#clip0_34_605)">
<path d="M43.6634 15.476L42.9363 17.5314H42.8757C42.7545 17.0679 42.5323 16.3626 42.1687 15.5163L38.2704 5.7431H34.4528V21.3198H36.9777V11.7078C36.9777 11.1033 36.9777 10.4181 36.9575 9.57178C36.9373 9.14861 36.8969 8.8262 36.8767 8.58438H36.9373C37.0584 9.18891 37.1998 9.63223 37.3008 9.91435L41.9869 21.2795H43.7644L48.4101 9.81359C48.5111 9.55163 48.6121 9.0277 48.7131 8.58438H48.7737C48.7131 9.73299 48.6727 10.7607 48.6525 11.3854V21.2593H51.3389V5.7028H47.6628L43.6634 15.476ZM53.8839 10.0957H56.5098V21.2593H53.8839V10.0957ZM55.2171 5.38039C54.7727 5.38039 54.4091 5.54159 54.1061 5.82371C53.8031 6.10582 53.6416 6.46854 53.6416 6.91186C53.6416 7.33503 53.8031 7.69774 54.1061 7.97986C54.4091 8.26197 54.7727 8.40303 55.2171 8.40303C55.6614 8.40303 56.0452 8.24182 56.328 7.97986C56.631 7.69774 56.7926 7.33503 56.7926 6.91186C56.7926 6.48869 56.631 6.12597 56.328 5.82371C56.0654 5.54159 55.6816 5.38039 55.2171 5.38039ZM65.8214 9.99495C65.3366 9.89419 64.8316 9.83374 64.3469 9.83374C63.1551 9.83374 62.0644 10.0957 61.1555 10.6196C60.2465 11.1436 59.5194 11.869 59.0548 12.7758C58.57 13.7027 58.3276 14.7707 58.3276 15.9999C58.3276 17.0679 58.57 18.015 59.0346 18.8815C59.4992 19.7278 60.1455 20.413 61.0141 20.8765C61.8422 21.3399 62.8118 21.5817 63.9025 21.5817C65.1548 21.5817 66.2253 21.3198 67.0737 20.8361L67.0939 20.816V18.3979L66.9929 18.4785C66.6091 18.7606 66.1647 19.0024 65.7204 19.1435C65.2558 19.3047 64.8316 19.3853 64.4681 19.3853C63.4177 19.3853 62.5896 19.083 62.0038 18.418C61.3978 17.7732 61.0949 16.8866 61.0949 15.7783C61.0949 14.6297 61.3979 13.7229 62.024 13.0579C62.6502 12.3929 63.4783 12.0503 64.4882 12.0503C65.3366 12.0503 66.2051 12.3325 66.9929 12.8967L67.0939 12.9773V10.4181L67.0737 10.398C66.7303 10.2569 66.3465 10.0957 65.8214 9.99495ZM74.4866 9.91435C73.8402 9.91435 73.2343 10.1159 72.7091 10.539C72.2647 10.9017 71.9618 11.4257 71.6992 12.0503H71.679V10.0957H69.0531V21.2593H71.679V15.5566C71.679 14.5894 71.881 13.7833 72.3253 13.1989C72.7697 12.5944 73.3353 12.2922 74.022 12.2922C74.2644 12.2922 74.5068 12.3526 74.8098 12.3929C75.0925 12.4735 75.2945 12.5541 75.4359 12.6549L75.5369 12.7355V10.1159L75.4763 10.0957C75.2945 9.9748 74.931 9.91435 74.4866 9.91435ZM81.6369 9.85389C79.7988 9.85389 78.3243 10.398 77.2942 11.466C76.2439 12.534 75.7389 14.005 75.7389 15.8589C75.7389 17.5918 76.2641 19.0024 77.274 20.0301C78.2839 21.0377 79.6574 21.5616 81.3743 21.5616C83.172 21.5616 84.6061 21.0175 85.6363 19.9294C86.6866 18.8412 87.1916 17.3903 87.1916 15.5969C87.1916 13.8236 86.7068 12.4131 85.717 11.3854C84.7677 10.3577 83.374 9.85389 81.6369 9.85389ZM83.7376 18.4382C83.2528 19.0629 82.4853 19.3651 81.5359 19.3651C80.5866 19.3651 79.819 19.0629 79.2737 18.3979C78.7283 17.7732 78.4657 16.8664 78.4657 15.7178C78.4657 14.5289 78.7485 13.6221 79.2737 12.9773C79.819 12.3325 80.5664 12.01 81.5157 12.01C82.4449 12.01 83.172 12.3123 83.6972 12.937C84.2223 13.5617 84.5051 14.4685 84.5051 15.6574C84.4647 16.8664 84.2425 17.8135 83.7376 18.4382ZM93.0492 14.7304C92.221 14.3879 91.6959 14.1259 91.4535 13.9042C91.2515 13.7027 91.1505 13.4206 91.1505 13.0579C91.1505 12.7556 91.2717 12.4534 91.5747 12.2519C91.8776 12.0503 92.221 11.9496 92.726 11.9496C93.1704 11.9496 93.6349 12.0302 94.0793 12.1511C94.5237 12.272 94.9276 12.4534 95.2508 12.6952L95.3518 12.7758V10.3174L95.2912 10.2972C94.9882 10.1763 94.5843 10.0554 94.0995 9.95465C93.6147 9.87404 93.1704 9.83374 92.8068 9.83374C91.5545 9.83374 90.5243 10.136 89.7164 10.801C88.9084 11.4257 88.5247 12.272 88.5247 13.2594C88.5247 13.7833 88.6055 14.2468 88.7873 14.6297C88.969 15.0125 89.2316 15.3752 89.5952 15.6775C89.9588 15.9596 90.4839 16.282 91.2111 16.5843C91.8171 16.8463 92.2816 17.0478 92.5644 17.209C92.8472 17.3702 93.029 17.5515 93.1704 17.6926C93.2714 17.8538 93.332 18.0553 93.332 18.3173C93.332 19.0629 92.7664 19.4256 91.6151 19.4256C91.1707 19.4256 90.7061 19.345 90.1608 19.1636C89.6154 18.9823 89.1104 18.7203 88.6863 18.418L88.5853 18.3374V20.8966L88.6459 20.9168C89.0296 21.0981 89.4942 21.219 90.0598 21.3601C90.6253 21.4608 91.1303 21.5414 91.5747 21.5414C92.928 21.5414 94.0389 21.2392 94.8267 20.5742C95.6346 19.9294 96.0588 19.1032 96.0588 18.0352C96.0588 17.2896 95.8568 16.6246 95.4124 16.1208C94.8267 15.6372 94.0995 15.1334 93.0492 14.7304ZM102.987 9.85389C101.149 9.85389 99.6743 10.398 98.6442 11.466C97.6141 12.534 97.0889 14.005 97.0889 15.8589C97.0889 17.5918 97.6141 19.0024 98.624 20.0301C99.6339 21.0377 101.007 21.5616 102.724 21.5616C104.522 21.5616 105.956 21.0175 106.986 19.9294C108.037 18.8412 108.542 17.3903 108.542 15.5969C108.542 13.8236 108.057 12.4131 107.067 11.3854C106.118 10.3577 104.724 9.85389 102.987 9.85389ZM105.067 18.4382C104.583 19.0629 103.815 19.3651 102.866 19.3651C101.896 19.3651 101.149 19.0629 100.603 18.3979C100.058 17.7732 99.7955 16.8664 99.7955 15.7178C99.7955 14.5289 100.078 13.6221 100.603 12.9773C101.149 12.3325 101.896 12.01 102.846 12.01C103.754 12.01 104.502 12.3123 105.027 12.937C105.552 13.5617 105.835 14.4685 105.835 15.6574C105.835 16.8664 105.572 17.8135 105.067 18.4382ZM122.58 12.2519V10.0957H119.934V6.79095L119.853 6.8111L117.348 7.55669L117.288 7.57684V10.0957H113.329V8.68514C113.329 8.04031 113.49 7.53654 113.773 7.21412C114.056 6.89171 114.48 6.7305 115.005 6.7305C115.369 6.7305 115.752 6.8111 116.177 6.99246L116.278 7.05291V4.77586L116.217 4.75571C115.853 4.6348 115.369 4.5542 114.743 4.5542C113.955 4.5542 113.268 4.73556 112.642 5.03782C112.016 5.38039 111.551 5.84386 111.208 6.46854C110.864 7.07307 110.683 7.7582 110.683 8.54408V10.0957H108.845V12.2317H110.683V21.2593H113.329V12.2519H117.288V17.9949C117.288 20.3525 118.399 21.5414 120.62 21.5414C120.984 21.5414 121.368 21.481 121.731 21.4205C122.115 21.3399 122.398 21.2392 122.559 21.1586L122.58 21.1384V18.9823L122.479 19.0629C122.317 19.1636 122.176 19.2442 121.933 19.3047C121.731 19.3651 121.549 19.3853 121.408 19.3853C120.883 19.3853 120.519 19.2644 120.257 18.9621C120.014 18.68 119.893 18.2165 119.893 17.5314V12.2519H122.58Z" fill="#555555"/>
<path d="M0.599854 0.503052H12.9816V12.8556H0.599854V0.503052Z" fill="#555555"/>
<path d="M14.2742 0.503052H26.656V12.8556H14.2742V0.503052Z" fill="#555555"/>
<path d="M0.599854 14.1453H12.9816V26.4978H0.599854V14.1453Z" fill="#555555"/>
<path d="M14.2742 14.1453H26.656V26.4978H14.2742V14.1453Z" fill="#555555"/>
</g>
<defs>
<clipPath id="clip0_34_605">
<rect width="122" height="25.9947" fill="white" transform="translate(0.599854 0.503052)"/>
</clipPath>
</defs>
</svg>
