<svg width="112" height="27" viewBox="0 0 112 27" fill="none" xmlns="http://www.w3.org/2000/svg">
<g clip-path="url(#clip0_34_611)">
<path d="M40.3018 9.74899V11.2222H40.3468C40.877 10.4334 41.7572 9.50455 43.7083 9.50455C45.2261 9.50455 46.3905 10.277 46.8895 11.4438H46.9345C47.3608 10.8539 47.8494 10.4074 48.3969 10.0912C49.0449 9.7164 49.7657 9.50129 50.6737 9.50129C52.7286 9.50129 54.548 10.8376 54.548 14.2076V20.599H51.4153V14.6542C51.4153 12.9463 50.7984 11.9588 49.5162 11.9588C48.5771 11.9588 47.8944 12.5519 47.6345 13.282C47.5444 13.533 47.5028 13.8752 47.5028 14.162V20.6023H44.3701V14.413C44.3701 12.9626 43.7776 11.9555 42.5127 11.9555C41.5008 11.9555 40.8666 12.7051 40.6067 13.3472C40.4958 13.621 40.4612 13.9371 40.4612 14.2337V20.599H37.325V9.74899H40.3018ZM70.7175 9.74899V11.7958H70.8041C71.3793 10.2314 72.7447 9.50455 73.9437 9.50455C74.2452 9.50455 74.4116 9.52737 74.6541 9.573V12.4151C74.3665 12.3759 74.0997 12.3368 73.7254 12.3368C72.367 12.3368 71.4209 13.0799 71.1818 14.2435C71.1298 14.4847 71.1125 14.7454 71.1125 15.0453V20.6023H67.8966V9.74899H70.7175ZM79.0205 6.15405V9.56974H81.7374V12.3336H79.0205V16.4109C79.0205 17.7309 79.3774 18.3697 80.4379 18.3697C80.9369 18.3697 81.3042 18.311 81.623 18.2361L81.6646 20.5273C81.2384 20.6772 80.3304 20.8402 79.4086 20.8402C78.324 20.8402 77.4195 20.4849 76.8685 19.9341C76.2378 19.3051 75.9467 18.2752 75.9467 16.8085V6.15405H79.0205ZM35.1418 20.599H32.023V6.15405H35.1418V20.599ZM26.8249 16.7238C26.8249 16.9226 26.8076 17.1312 26.7487 17.3104C26.5061 18.0633 25.6779 18.6989 24.6452 18.6989C23.7823 18.6989 23.0961 18.2393 23.0961 17.2648C23.0961 15.7753 24.8427 15.3614 26.8284 15.3712V16.7238H26.8249ZM29.9403 14.1262C29.9403 11.6654 28.8244 9.50455 25.0506 9.50455C23.1135 9.50455 21.5748 10.0163 20.7362 10.4725L21.3496 12.4476C22.1154 11.9914 23.3387 11.6165 24.4962 11.6165C26.4125 11.6133 26.7244 12.6367 26.7244 13.2918V13.4482C22.5486 13.4417 19.9115 14.8008 19.9115 17.5712C19.9115 19.2627 21.2526 20.8467 23.5882 20.8467C25.0264 20.8467 26.2254 20.3089 26.9462 19.4452H27.0155C27.0155 19.4452 27.4937 21.3193 30.1205 20.6023C29.9819 19.82 29.9368 18.9889 29.9368 17.9884V14.1262H29.9403ZM4.24446 6.15405C4.56674 7.68264 5.4816 12.1217 5.4816 12.1217C5.86626 13.9469 6.21973 15.8601 6.48656 17.3724H6.53508C6.79498 15.7656 7.2039 14.2435 7.64053 12.3596L9.18263 6.15405H12.596L14.0376 12.5193C14.4154 14.2891 14.7168 15.6547 14.956 17.3007H15.001C15.2609 15.6384 15.6005 14.2174 15.9713 12.3988L17.3575 6.15405H20.6323L16.5743 20.599C13.9891 21.1303 12.998 20.1525 12.6445 18.6011C12.2911 17.0464 11.598 14.0903 11.598 14.0903C11.2411 12.4705 10.9638 11.3297 10.7698 9.66751H10.7213C10.444 11.3134 10.1529 12.4672 9.72323 14.087L8.02173 20.6023C5.3811 21.0977 4.46624 20.3643 3.9603 18.3729C3.52366 16.6684 0.799866 6.15731 0.799866 6.15731H4.24446V6.15405ZM62.6986 16.7238C62.6986 16.9226 62.6812 17.1312 62.6223 17.3104C62.3797 18.0633 61.5515 18.6989 60.5188 18.6989C59.6559 18.6989 58.9698 18.2393 58.9698 17.2648C58.9698 15.7753 60.7164 15.3614 62.702 15.3712V16.7238H62.6986ZM65.8139 14.1262C65.8139 11.6654 64.6981 9.50455 60.9243 9.50455C58.9871 9.50455 57.4485 10.0163 56.6099 10.4725L57.2232 12.4476C57.9891 11.9914 59.2124 11.6165 60.3698 11.6165C62.2827 11.6133 62.5981 12.6367 62.5981 13.2918V13.4482C58.4257 13.4417 55.7886 14.8008 55.7886 17.5712C55.7886 19.2627 57.1331 20.8467 59.4654 20.8467C60.9 20.8467 62.1025 20.3089 62.8198 19.4452H62.8926C62.8926 19.4452 63.3708 21.3193 65.9976 20.6023C65.859 19.82 65.8139 18.9889 65.8139 17.9884V14.1262Z" fill="#555555"/>
<path d="M94.3801 15.6241C94.6875 16.1516 94.6668 16.7404 94.3387 17.0092L88.6668 20.9265C88.0761 21.2634 87.1918 20.855 86.6909 20.0008C86.1866 19.1431 86.2764 18.1868 86.8671 17.8499L93.1469 14.9706C93.5407 14.8209 94.0727 15.0966 94.3801 15.6241ZM101.845 15.6241C102.156 15.0966 102.684 14.8243 103.078 14.9672L109.361 17.8465C109.952 18.1834 110.038 19.1397 109.537 19.9974C109.033 20.8516 108.145 21.2566 107.558 20.9231L101.886 17.0058C101.561 16.7404 101.537 16.1482 101.845 15.6241ZM98.1107 17.7478C98.729 17.7478 99.2368 18.0609 99.3059 18.4727L99.9173 25.2725C99.9173 25.9464 99.1193 26.4977 98.1141 26.4977C97.1124 26.4977 96.311 25.9464 96.311 25.2725L96.919 18.4727C96.9881 18.0609 97.4958 17.7478 98.1107 17.7478ZM101.886 9.99496L107.558 6.07432C108.145 5.73739 109.033 6.14238 109.537 7.00002C110.038 7.85767 109.952 8.814 109.361 9.15093L103.078 12.0336C102.684 12.1765 102.152 11.9042 101.845 11.3767C101.537 10.8492 101.561 10.2604 101.886 9.99496ZM93.1469 12.0336L86.8671 9.15093C86.2799 8.814 86.1901 7.85767 86.6909 7.00002C87.1918 6.14238 88.0795 5.73739 88.6668 6.07432L94.3387 9.99496C94.6668 10.257 94.6875 10.8492 94.3801 11.3767C94.0727 11.9042 93.5407 12.1765 93.1469 12.0336ZM96.919 8.52812L96.311 1.72825C96.311 1.05439 97.109 0.503052 98.1141 0.503052C99.1193 0.503052 99.9173 1.05439 99.9173 1.72825L99.3059 8.52812C99.2368 8.93652 98.729 9.25303 98.1107 9.25303C97.4958 9.25303 96.9881 8.93652 96.919 8.52812ZM111.071 20.8993V20.7291H111.226C111.278 20.7291 111.313 20.7631 111.313 20.8142C111.313 20.8618 111.278 20.8993 111.226 20.8993H111.071ZM110.943 21.209C110.943 21.226 110.957 21.243 110.978 21.243H111.043C111.061 21.243 111.078 21.226 111.078 21.209V21.015H111.185L111.271 21.2192C111.278 21.2328 111.289 21.243 111.302 21.243H111.382C111.406 21.243 111.423 21.2192 111.413 21.1953C111.382 21.1341 111.351 21.0694 111.32 21.0048C111.372 20.9877 111.451 20.9367 111.451 20.8142C111.451 20.6848 111.344 20.61 111.237 20.61H110.978C110.96 20.61 110.943 20.627 110.943 20.644V21.209ZM110.663 20.9265C110.663 20.6508 110.891 20.4262 111.171 20.4262C111.451 20.4262 111.679 20.6474 111.679 20.9265C111.679 21.2022 111.454 21.4268 111.171 21.4268C110.888 21.4268 110.663 21.2022 110.663 20.9265ZM110.543 20.9265C110.543 21.2668 110.822 21.5459 111.171 21.5459C111.517 21.5459 111.8 21.2668 111.8 20.9265C111.8 20.5861 111.517 20.3071 111.171 20.3071C110.822 20.3071 110.543 20.5861 110.543 20.9265Z" fill="#555555"/>
</g>
<defs>
<clipPath id="clip0_34_611">
<rect width="111" height="25.9947" fill="white" transform="translate(0.799866 0.503052)"/>
</clipPath>
</defs>
</svg>
